<?xml version="1.0" encoding="utf-8"?>
<!-- Generator: Adobe Illustrator 26.0.1, SVG Export Plug-In . SVG Version: 6.00 Build 0)  -->
<svg version="1.1" id="Слой_1" xmlns="http://www.w3.org/2000/svg" xmlns:xlink="http://www.w3.org/1999/xlink" x="0px" y="0px"
	 viewBox="0 0 2000 2000" style="enable-background:new 0 0 2000 2000;" xml:space="preserve">
<style type="text/css">
	.st0{fill:#FFDA00;}
	.st1{fill:#CCAE00;}
	.st2{fill:#CFD8DD;}
	.st3{fill:#B0BEC5;}
	.st4{opacity:0.4;fill:#FFFFFF;enable-background:new    ;}
</style>
<g id="Layer_1-2_00000013152174700838783600000008396052377667325103_">
	<path class="st0" d="M1733.5,733.5c0,204.5-85.3,399.6-235.3,538.4c-57.6,52.3-98.9,120-119.3,195.1c-6,21.8-9.9,44.2-12,66.7
		l-25,341.4c-5.1,69.9-63.3,123.9-133.3,123.7H790.6c-70,0.1-128.2-53.9-133.3-123.7l-24.1-335c-1.8-24.7-6.1-49.2-13-73
		c-20.9-75.6-62.5-143.9-120.3-197C203.6,993.9,187.3,529.7,463.5,233.4s740.4-312.6,1036.7-36.4
		C1649.1,335.5,1733.5,530,1733.5,733.5z"/>
	<path class="st1" d="M1166.7,1533.7H1100v-466.9H900v466.9h-66.7v-466.9h-33.4c-55.3,0-100-44.8-100-100s44.8-100,100-100
		s100,44.8,100,100v33.4H1100v-33.4c0-55.3,44.8-100,100-100c55.1,0,100,44.8,100,100s-44.8,100-100,100h-33.4v466.9H1166.7z
		 M1166.7,1000.2h33.4c18.5,0,33.4-14.9,33.4-33.4c0-18.5-14.9-33.4-33.4-33.4c-18.5,0-33.4,14.9-33.4,33.4V1000.2z M799.9,933.5
		c-18.5,0-33.4,14.9-33.4,33.4c0,18.5,14.9,33.4,33.4,33.4h33.4v-33.4C833.3,948.4,818.4,933.5,799.9,933.5z"/>
	<path class="st2" d="M1378.7,1467c-6,21.8-9.9,44.2-12,66.7l-4.3,60.7l-9.7,139.3l-10.1,137.7v5c-5.1,69.9-63.3,123.9-133.3,123.7
		H790.6c-19.2,0-38.2-4.1-55.7-12c-44.2-20.4-73.9-63.2-77.3-111.7v-9.3l-9.7-133.3l-10.1-133.3l-4.7-60.4c-1.8-24.7-6.1-49.2-13-73
		h758.5V1467z"/>
	<path class="st3" d="M1378.7,1467c-6,21.8-9.9,44.2-12,66.7l-4.3,60.7l-715.2,139.3l-10.1-133.3l690.9-133.3h50.7V1467z"/>
	<path class="st3" d="M1352.7,1733.8l-10.1,137.7L735,1988.2c-44.2-20.4-73.9-63.2-77.3-111.7v-9.3L1352.7,1733.8z"/>
	<path class="st4" d="M1359.7,491.1c-76.7-17.8-156.1-19.5-233.4-5c-250.2,48.5-436.2,259.8-452.5,514.1v3.7
		c-0.6,18.5-15.9,32.9-34.4,32.2c-10.6-0.4-20.2-5.6-26.4-14.3c-144-228.2-75.9-530.1,152.4-674.3
		c202.2-127.7,467.4-90.3,626.3,88.5c12.5,13.6,11.5,34.6-2,47.1C1381.7,490.6,1370.4,493.5,1359.7,491.1z"/>
</g>
</svg>
