<?xml version="1.0" encoding="utf-8"?>
<!-- Generator: Adobe Illustrator 26.0.1, SVG Export Plug-In . SVG Version: 6.00 Build 0)  -->
<svg version="1.1" id="Слой_1" xmlns="http://www.w3.org/2000/svg" xmlns:xlink="http://www.w3.org/1999/xlink" x="0px" y="0px"
	 viewBox="0 0 4202.8 2000" style="enable-background:new 0 0 4202.8 2000;" xml:space="preserve">
<style type="text/css">
	.st0{fill:#FFD524;}
	.st1{fill:#CCAE00;}
	.st2{fill:#CFD8DD;}
	.st3{fill:#B0BEC5;}
	.st4{fill:#FFFFFF;}
</style>
<g id="Layer_1-2_00000013152174700838783600000008396052377667325103_">
	<path class="st0" d="M1152,790.7c0,160.6-67,313.8-184.8,422.8c-45.2,41.1-77.7,94.2-93.7,153.2c-4.7,17.1-7.8,34.7-9.4,52.4
		l-19.6,268.1c-4,54.9-49.7,97.3-104.7,97.1H411.6c-55,0.1-100.7-42.3-104.7-97.1L288,1424.1c-1.4-19.4-4.8-38.6-10.2-57.3
		c-16.4-59.4-49.1-113-94.5-154.7C-49.4,995.1-62.3,630.6,154.6,397.9S736,152.4,968.8,369.3C1085.7,478.2,1152.1,630.9,1152,790.7z
		"/>
	<path class="st1" d="M706.9,1419.1h-52.4v-366.6H497.5v366.6h-52.4v-366.6h-26.2c-43.4,0-78.5-35.2-78.5-78.5s35.2-78.5,78.5-78.5
		s78.5,35.2,78.5,78.5v26.2h157.1V974c0-43.4,35.2-78.5,78.5-78.5s78.5,35.2,78.5,78.5s-35.2,78.5-78.5,78.5h-26.2V1419.1z
		 M706.9,1000.2h26.2c14.5,0,26.2-11.7,26.2-26.2s-11.7-26.2-26.2-26.2c-14.5,0-26.2,11.7-26.2,26.2V1000.2z M418.9,947.8
		c-14.5,0-26.2,11.7-26.2,26.2s11.7,26.2,26.2,26.2h26.2V974C445.1,959.5,433.4,947.8,418.9,947.8z"/>
	<path class="st2" d="M873.5,1366.7c-4.7,17.1-7.8,34.7-9.4,52.4l-3.4,47.7l-7.6,109.4l-7.9,108.1v3.9c-4,54.9-49.7,97.3-104.7,97.1
		H411.6c-15.1,0-30-3.2-43.7-9.4c-34.7-16-58-49.6-60.7-87.7v-7.3l-7.6-104.7l-7.9-104.7l-3.7-47.4c-1.4-19.4-4.8-38.6-10.2-57.3
		H873.5z"/>
	<path class="st3" d="M873.5,1366.7c-4.7,17.1-7.8,34.7-9.4,52.4l-3.4,47.7L299,1576.2l-7.9-104.7l542.5-104.7H873.5z"/>
	<path class="st3" d="M853,1576.2l-7.9,108.1L367.9,1776c-34.7-16-58-49.6-60.7-87.7v-7.3L853,1576.2z"/>
</g>
<g>
	<polygon class="st4" points="1576,686.4 1836.1,686.4 1836.1,1483.7 1965.2,1483.7 1965.2,686.4 2225.3,686.4 2225.3,563.6 
		1576,563.6 	"/>
	<path class="st4" d="M2689.1,881.3c-45.1-42.6-108.8-63.9-191.1-63.9c-49.8,0-95,8.3-135.8,25c-40.7,16.7-73.5,40-98.4,69.9
		l94.3,64.5c19.8-14.8,42.3-26,67.4-33.8s50.5-11.7,76.3-11.7c42.2,0,74.8,11.9,97.8,35.8c23,23.8,34.5,57.3,34.5,100.3v27.8h-181
		c-73.8,0-129.2,16.1-166.1,48.4c-36.9,32.3-55.4,81.1-55.4,146.5c0,68.8,20.1,119.8,60.4,153.1c40.3,33.3,100.7,50,181.3,50
		c27.4,0,52-2.9,73.7-8.5c21.7-5.7,41-14.2,57.9-25.6c10.8-7.3,20.5-15.9,29.1-25.9v50.5h122.8v-422.1
		C2756.8,984,2734.3,923.9,2689.1,881.3z M2597.4,1372.3c-24.5,10.5-61.2,15.8-110.1,15.8c-44.7,0-78.3-8-100.6-24
		s-33.5-40.7-33.5-74c0-30.8,8.4-53.7,25.3-68.7s42-22.5,75.3-22.5h180.3v124C2634.1,1345.3,2621.8,1361.8,2597.4,1372.3z"/>
	<path class="st4" d="M3382.1,1124.3c-23.6-12.7-49.5-21.2-77.5-25.6c-28.1-4.4-55.8-7.5-83.2-9.2c-28.7-2.1-55.5-4.4-80.4-7
		s-44.9-8.1-60.1-16.8s-22.8-22.9-22.8-42.7c0-30,11-52.4,32.9-67.4s54.8-22.5,98.7-22.5c30.4,0,61.5,5.3,93.3,15.8
		c31.8,10.5,64.2,26.4,97.1,47.5l77.8-94.3c-38.8-28.7-80.4-50-124.7-63.9s-92.2-20.9-143.6-20.9c-84.4,0-147.9,17.3-190.5,51.9
		s-63.9,86.7-63.9,156.3c0,38.4,6.4,69,19.3,91.8s30.1,40,51.6,51.6c21.5,11.6,45.4,19.6,71.5,24c26.2,4.4,52.5,7.7,79.1,9.8
		c31.6,2.1,61.3,4.8,88.9,7.9c27.6,3.2,50,9.8,67.1,19.9s25.6,27.4,25.6,51.9c0,31.6-12.8,55.4-38.3,71.2
		c-25.5,15.8-63.8,23.7-114.8,23.7c-34.2,0-68.7-6.8-103.5-20.2c-34.8-13.5-70.1-33.8-106-60.8l-76.6,94.3
		c37.5,34.2,80,59.8,127.5,76.9s100.3,25.6,158.5,25.6c92,0,160.8-17.5,206.6-52.5c45.8-35,68.7-87.8,68.7-158.2
		c0-43-7.2-77-21.5-101.9S3405.7,1136.9,3382.1,1124.3z"/>
	<polygon class="st4" points="4062.3,1483.7 4202.8,1483.7 3950.6,1074.5 4170.5,826.9 4018.7,826.9 3754.2,1145.9 3754.2,563.6 
		3625.1,563.6 3625.1,1483.7 3754.2,1483.7 3754.2,1295.6 3869.9,1165.3 	"/>
</g>
</svg>
